<?xml version="1.0" encoding="UTF-8" standalone="no"?>
<!DOCTYPE svg PUBLIC "-//W3C//DTD SVG 1.1//EN" "http://www.w3.org/Graphics/SVG/1.1/DTD/svg11.dtd">
<svg width="100%" height="100%" viewBox="0 0 48 48" version="1.1" xmlns="http://www.w3.org/2000/svg" xmlns:xlink="http://www.w3.org/1999/xlink" xml:space="preserve" xmlns:serif="http://www.serif.com/" style="fill-rule:evenodd;clip-rule:evenodd;stroke-linecap:round;stroke-linejoin:round;stroke-miterlimit:1.5;">
    <rect x="-8" y="-3" width="70" height="62" style="stroke:white;stroke-width:3px;"/>
    <path d="M24,6L24,42" style="fill:none;stroke:white;stroke-width:3px;"/>
    <g transform="matrix(1,0,0,0.722222,11,6.66667)">
        <path d="M24,6L24,29.538" style="fill:none;stroke:white;stroke-width:3.44px;"/>
    </g>
    <g transform="matrix(1,0,0,0.722222,-11,6.66667)">
        <path d="M24,6L24,42" style="fill:none;stroke:white;stroke-width:3.44px;"/>
    </g>
    <g transform="matrix(1,0,0,0.444444,22,13.3333)">
        <path d="M24,6L24,42" style="fill:none;stroke:white;stroke-width:3.88px;"/>
    </g>
    <g transform="matrix(1,0,0,0.444444,-22,13.3333)">
        <path d="M24,6L24,42" style="fill:none;stroke:white;stroke-width:3.88px;"/>
    </g>
    <g transform="matrix(1,0,0,1,1.20389,-3)">
        <g transform="matrix(18,0,0,18,28,46.1045)">
            <path d="M0.192,-0.652L0.192,-0.448C0.217,-0.474 0.243,-0.494 0.269,-0.508C0.295,-0.522 0.327,-0.529 0.365,-0.529C0.41,-0.529 0.448,-0.518 0.482,-0.497C0.515,-0.476 0.541,-0.446 0.559,-0.406C0.578,-0.366 0.587,-0.319 0.587,-0.264C0.587,-0.224 0.582,-0.187 0.572,-0.153C0.561,-0.119 0.546,-0.09 0.527,-0.065C0.507,-0.041 0.484,-0.022 0.456,-0.008C0.428,0.005 0.397,0.012 0.364,0.012C0.343,0.012 0.324,0.01 0.306,0.005C0.288,0 0.272,-0.006 0.26,-0.014C0.247,-0.022 0.236,-0.031 0.227,-0.039C0.218,-0.048 0.207,-0.06 0.192,-0.077L0.192,-0.064C0.192,-0.039 0.186,-0.02 0.174,-0.007C0.162,0.006 0.146,0.012 0.128,0.012C0.109,0.012 0.094,0.006 0.083,-0.007C0.072,-0.02 0.066,-0.039 0.066,-0.064L0.066,-0.646C0.066,-0.673 0.071,-0.693 0.082,-0.707C0.093,-0.721 0.108,-0.728 0.128,-0.728C0.148,-0.728 0.164,-0.721 0.175,-0.708C0.186,-0.695 0.192,-0.676 0.192,-0.652ZM0.198,-0.256C0.198,-0.203 0.21,-0.162 0.235,-0.134C0.259,-0.105 0.291,-0.091 0.33,-0.091C0.364,-0.091 0.392,-0.105 0.417,-0.135C0.441,-0.164 0.453,-0.205 0.453,-0.26C0.453,-0.295 0.448,-0.325 0.438,-0.351C0.428,-0.376 0.414,-0.396 0.395,-0.409C0.376,-0.423 0.355,-0.43 0.33,-0.43C0.305,-0.43 0.282,-0.423 0.262,-0.409C0.242,-0.396 0.227,-0.376 0.215,-0.349C0.204,-0.323 0.198,-0.292 0.198,-0.256Z" style="fill:white;fill-rule:nonzero;"/>
        </g>
    </g>
</svg>
