<?xml version="1.0" encoding="UTF-8" standalone="no"?>
<!DOCTYPE svg PUBLIC "-//W3C//DTD SVG 1.1//EN" "http://www.w3.org/Graphics/SVG/1.1/DTD/svg11.dtd">
<svg width="100%" height="100%" viewBox="0 0 48 48" version="1.1" xmlns="http://www.w3.org/2000/svg" xmlns:xlink="http://www.w3.org/1999/xlink" xml:space="preserve" xmlns:serif="http://www.serif.com/" style="fill-rule:evenodd;clip-rule:evenodd;stroke-linecap:round;stroke-linejoin:round;stroke-miterlimit:1.5;">
    <path d="M24,6L24,42" style="fill:none;stroke:white;stroke-width:3px;"/>
    <g transform="matrix(1,0,0,0.722222,11,6.66667)">
        <path d="M24,6L24,29.538" style="fill:none;stroke:white;stroke-width:3.44px;"/>
    </g>
    <g transform="matrix(1,0,0,0.722222,-11,6.66667)">
        <path d="M24,6L24,42" style="fill:none;stroke:white;stroke-width:3.44px;"/>
    </g>
    <g transform="matrix(1,0,0,0.444444,22,13.3333)">
        <path d="M24,6L24,42" style="fill:none;stroke:white;stroke-width:3.88px;"/>
    </g>
    <g transform="matrix(1,0,0,0.444444,-22,13.3333)">
        <path d="M24,6L24,42" style="fill:none;stroke:white;stroke-width:3.88px;"/>
    </g>
    <g transform="matrix(1,0,0,1,-0.5,-5)">
        <g transform="matrix(18,0,0,18,28,46.1045)">
            <path d="M0.152,-0.447L0.239,-0.149L0.318,-0.426C0.326,-0.455 0.333,-0.475 0.337,-0.485C0.341,-0.496 0.348,-0.506 0.36,-0.515C0.371,-0.525 0.386,-0.53 0.406,-0.53C0.426,-0.53 0.441,-0.525 0.452,-0.515C0.464,-0.506 0.472,-0.495 0.476,-0.484C0.481,-0.473 0.487,-0.453 0.495,-0.426L0.574,-0.149L0.662,-0.447C0.668,-0.468 0.673,-0.484 0.676,-0.493C0.68,-0.503 0.686,-0.511 0.694,-0.519C0.703,-0.526 0.715,-0.53 0.731,-0.53C0.747,-0.53 0.761,-0.524 0.772,-0.513C0.784,-0.502 0.79,-0.489 0.79,-0.474C0.79,-0.46 0.785,-0.44 0.775,-0.412L0.666,-0.093C0.657,-0.066 0.649,-0.046 0.644,-0.034C0.639,-0.022 0.631,-0.011 0.619,-0.002C0.608,0.007 0.593,0.012 0.573,0.012C0.553,0.012 0.537,0.007 0.526,-0.003C0.514,-0.013 0.506,-0.025 0.5,-0.04C0.494,-0.055 0.488,-0.074 0.482,-0.097L0.406,-0.357L0.332,-0.097C0.322,-0.061 0.312,-0.034 0.3,-0.015C0.289,0.003 0.269,0.012 0.24,0.012C0.226,0.012 0.213,0.009 0.203,0.004C0.193,-0.002 0.184,-0.01 0.177,-0.021C0.17,-0.031 0.164,-0.044 0.159,-0.058C0.154,-0.073 0.15,-0.084 0.147,-0.093L0.039,-0.412C0.028,-0.442 0.023,-0.463 0.023,-0.474C0.023,-0.488 0.029,-0.501 0.04,-0.513C0.051,-0.524 0.065,-0.53 0.082,-0.53C0.104,-0.53 0.119,-0.524 0.127,-0.511C0.135,-0.498 0.143,-0.477 0.152,-0.447Z" style="fill:white;fill-rule:nonzero;"/>
        </g>
    </g>
</svg>
